<?xml version="1.0" encoding="utf-8"?>
<!-- Svg Vector Icons : http://www.onlinewebfonts.com/icon -->
<!DOCTYPE svg PUBLIC "-//W3C//DTD SVG 1.1//EN" "http://www.w3.org/Graphics/SVG/1.1/DTD/svg11.dtd">
<svg version="1.1" xmlns="http://www.w3.org/2000/svg" xmlns:xlink="http://www.w3.org/1999/xlink" x="0px" y="0px" viewBox="0 0 256 256" enable-background="new 0 0 256 256" xml:space="preserve">
<metadata> Svg Vector Icons : http://www.onlinewebfonts.com/icon </metadata>
<g><g><path fill="#000000" d="M128,62.4c-17.1,0-31,13.9-31,31c0,17.1,13.9,31,31,31c17.1,0,31-13.9,31-31C159,76.3,145.1,62.4,128,62.4z"/><path fill="#000000" d="M128,10C62.8,10,10,62.8,10,128c0,65.2,52.8,118,118,118c65.2,0,118-52.8,118-118C246,62.8,193.2,10,128,10z M182.8,189.8c-3.2,0-5.8-2.6-5.8-5.8c0-26.7-21.5-47.7-49-47.7c-27.5,0-49,20.9-49,47.7c0,3.2-2.6,5.8-5.8,5.8c-3.2,0-5.8-2.6-5.8-5.8c0-16.2,6.3-31.2,17.8-42.3c5.7-5.5,12.3-9.7,19.5-12.6c-2.4-1.6-4.7-3.4-6.8-5.5c-8-8-12.5-18.8-12.5-30.2c0-11.4,4.4-22.1,12.5-30.1c8-8,18.8-12.5,30.1-12.5s22.1,4.4,30.1,12.5c8,8.1,12.5,18.8,12.5,30.1c0,11.4-4.4,22.1-12.5,30.2c-2.1,2.1-4.4,3.9-6.8,5.5c7.2,2.9,13.8,7.1,19.5,12.6c11.5,11.1,17.8,26.2,17.8,42.3C188.7,187.2,186.1,189.8,182.8,189.8z"/></g></g>
</svg>